<svg width="112" height="52" viewBox="0 0 112 52" fill="none" xmlns="http://www.w3.org/2000/svg">
<path d="M15.1443 12.7942C51.4901 -4.4043 78.7473 -1.80851 110.549 29.3439" stroke="#EF1A2D" stroke-width="3"/>
<path d="M7.03159 12.1454C50.1908 -7.64943 82.6413 9.87372 107.628 50.7616" stroke="#00D2BE" stroke-width="3"/>
<path d="M7.03159 12.1454C50.1908 -7.64943 82.6413 9.87372 107.628 50.7616" stroke="#110000" stroke-opacity="0.2" stroke-width="3"/>
<path d="M18.0648 21.2314C54.4106 4.03283 74.5287 6.30423 106.33 37.4566" stroke="#0600EF" stroke-width="3"/>
<path d="M12.2154 38.117C11.6521 38.117 11.1408 38.0173 10.6814 37.818C10.2308 37.61 9.87545 37.324 9.61545 36.96C9.35545 36.596 9.22545 36.1843 9.22545 35.725V33.892C9.22545 33.424 9.35111 32.9993 9.60245 32.618C9.86245 32.2367 10.2178 31.9377 10.6684 31.721C11.1191 31.4957 11.6348 31.383 12.2154 31.383C12.7961 31.383 13.3118 31.4957 13.7624 31.721C14.2218 31.9377 14.5771 32.2367 14.8284 32.618C15.0884 32.9993 15.2184 33.424 15.2184 33.892V35.725C15.2184 36.1843 15.0841 36.596 14.8154 36.96C14.5554 37.324 14.1958 37.61 13.7364 37.818C13.2858 38.0173 12.7788 38.117 12.2154 38.117ZM12.2154 36.726C12.6488 36.726 12.9868 36.6263 13.2294 36.427C13.4808 36.2277 13.6064 35.959 13.6064 35.621V33.97C13.6064 33.6147 13.4808 33.3287 13.2294 33.112C12.9868 32.8867 12.6488 32.774 12.2154 32.774C11.7908 32.774 11.4528 32.8867 11.2014 33.112C10.9501 33.3287 10.8244 33.6147 10.8244 33.97V35.621C10.8244 35.959 10.9501 36.2277 11.2014 36.427C11.4528 36.6263 11.7908 36.726 12.2154 36.726ZM18.5553 38.117C18.3473 38.117 18.1653 38.0693 18.0093 37.974C17.8619 37.8787 17.7579 37.7487 17.6973 37.584L15.3573 31.513C15.4179 31.4783 15.5219 31.448 15.6693 31.422C15.8253 31.396 15.9509 31.383 16.0463 31.383C16.2976 31.383 16.5229 31.435 16.7223 31.539C16.9303 31.643 17.0689 31.7947 17.1383 31.994L18.4773 36.05L18.2563 36.661L18.3603 36.687L19.9723 31.994C20.0416 31.7947 20.1759 31.643 20.3753 31.539C20.5833 31.435 20.8129 31.383 21.0643 31.383C21.1596 31.383 21.2809 31.396 21.4283 31.422C21.5843 31.448 21.6926 31.4783 21.7533 31.513L19.4133 37.584C19.3526 37.7487 19.2443 37.8787 19.0883 37.974C18.9409 38.0693 18.7633 38.117 18.5553 38.117ZM25.0024 38.117C24.465 38.117 23.9754 38.013 23.5334 37.805C23.0914 37.5883 22.7404 37.298 22.4804 36.934C22.2204 36.5613 22.0904 36.1453 22.0904 35.686V33.957C22.0904 33.4717 22.2247 33.034 22.4934 32.644C22.762 32.254 23.1174 31.9463 23.5594 31.721C24.01 31.4957 24.4954 31.383 25.0154 31.383C25.5267 31.383 25.9947 31.4913 26.4194 31.708C26.8527 31.916 27.195 32.2107 27.4464 32.592C27.6977 32.9647 27.8234 33.3937 27.8234 33.879V34.607C27.8234 34.7977 27.7497 34.958 27.6024 35.088C27.4637 35.218 27.286 35.283 27.0694 35.283H23.6634V35.569C23.6634 35.9417 23.776 36.245 24.0014 36.479C24.2267 36.713 24.5647 36.83 25.0154 36.83C25.4487 36.83 25.7694 36.7347 25.9774 36.544C26.194 36.3533 26.3024 36.1063 26.3024 35.803C26.4584 35.7857 26.5667 35.777 26.6274 35.777C26.948 35.777 27.1994 35.8507 27.3814 35.998C27.5634 36.1367 27.6544 36.336 27.6544 36.596C27.6544 36.8473 27.5374 37.09 27.3034 37.324C27.0694 37.558 26.7487 37.7487 26.3414 37.896C25.934 38.0433 25.4877 38.117 25.0024 38.117ZM26.3544 34.126V33.879C26.3544 33.515 26.2287 33.2203 25.9774 32.995C25.726 32.7697 25.401 32.657 25.0024 32.657C24.6037 32.657 24.2787 32.7697 24.0274 32.995C23.7847 33.2117 23.6634 33.5063 23.6634 33.879V34.126H26.3544ZM32.4156 32.787C31.9043 32.787 31.4883 32.9257 31.1676 33.203C30.847 33.4717 30.6866 33.8097 30.6866 34.217V37.129C30.6866 37.4757 30.5566 37.727 30.2966 37.883C30.0366 38.039 29.6293 38.117 29.0746 38.117V32.631C29.0746 32.2323 29.2003 31.9247 29.4516 31.708C29.7116 31.4913 30.1016 31.383 30.6216 31.383V32.15C30.4916 32.2973 30.3876 32.4403 30.3096 32.579L30.3876 32.631C30.9336 31.799 31.6183 31.383 32.4416 31.383C32.8143 31.383 33.096 31.4827 33.2866 31.682C33.4773 31.8727 33.5726 32.1153 33.5726 32.41C33.5726 32.6353 33.512 32.826 33.3906 32.982C33.1566 32.852 32.8316 32.787 32.4156 32.787ZM37.4499 38.117C36.7479 38.117 36.2279 37.9133 35.8899 37.506C35.5519 37.0987 35.3829 36.5743 35.3829 35.933V32.709H34.0439C34.0439 32.3017 34.1219 31.9983 34.2779 31.799C34.4339 31.5997 34.6419 31.5 34.9019 31.5H35.4089V30.421C35.4089 30.0657 35.5389 29.8143 35.7989 29.667C36.0589 29.511 36.4532 29.433 36.9819 29.433V31.5H38.7109C38.7109 31.9333 38.6285 32.2453 38.4639 32.436C38.2992 32.618 38.0349 32.709 37.6709 32.709H37.0079V35.868C37.0079 36.1713 37.0642 36.388 37.1769 36.518C37.2982 36.648 37.5019 36.713 37.7879 36.713C38.0912 36.713 38.3945 36.6307 38.6979 36.466C38.7845 36.544 38.8539 36.6437 38.9059 36.765C38.9579 36.8777 38.9839 36.9947 38.9839 37.116C38.9839 37.376 38.8495 37.61 38.5809 37.818C38.3122 38.0173 37.9352 38.117 37.4499 38.117ZM41.9729 38.117C41.5309 38.117 41.1235 38.0303 40.7509 37.857C40.3869 37.6837 40.0922 37.4367 39.8669 37.116C39.6502 36.7867 39.5419 36.3967 39.5419 35.946C39.5419 35.4953 39.6589 35.1053 39.8929 34.776C40.1269 34.438 40.4432 34.1823 40.8419 34.009C41.2492 33.827 41.6955 33.736 42.1809 33.736C42.5795 33.736 42.9349 33.801 43.2469 33.931C43.5675 34.0523 43.8622 34.2387 44.1309 34.49L44.1959 34.425C44.1179 34.347 43.9835 34.23 43.7929 34.074V33.814C43.7929 33.4587 43.6672 33.177 43.4159 32.969C43.1645 32.761 42.8135 32.657 42.3629 32.657C41.5569 32.657 40.9632 32.9517 40.5819 33.541C40.3912 33.4803 40.2309 33.385 40.1009 33.255C39.9709 33.1163 39.9059 32.969 39.9059 32.813C39.9059 32.553 40.0229 32.3147 40.2569 32.098C40.4909 31.8813 40.8072 31.708 41.2059 31.578C41.6045 31.448 42.0379 31.383 42.5059 31.383C43.4245 31.383 44.1352 31.5997 44.6379 32.033C45.1405 32.4577 45.3919 33.0383 45.3919 33.775V37.025C45.3919 37.4063 45.2705 37.6837 45.0279 37.857C44.7852 38.0303 44.4039 38.117 43.8839 38.117V37.584C44.0312 37.4367 44.1309 37.3283 44.1829 37.259L44.1309 37.194C43.8449 37.4973 43.5372 37.727 43.2079 37.883C42.8872 38.039 42.4755 38.117 41.9729 38.117ZM42.3889 36.934C42.8395 36.934 43.1905 36.8473 43.4419 36.674C43.6932 36.5007 43.8189 36.2537 43.8189 35.933C43.8189 35.621 43.6889 35.374 43.4289 35.192C43.1775 35.01 42.8352 34.919 42.4019 34.919C42.0032 34.919 41.6869 35.01 41.4529 35.192C41.2275 35.3653 41.1149 35.6123 41.1149 35.933C41.1149 36.2623 41.2275 36.5137 41.4529 36.687C41.6782 36.8517 41.9902 36.934 42.3889 36.934ZM52.7111 37.649C52.6331 37.7963 52.5204 37.9133 52.3731 38C52.2257 38.078 52.0567 38.117 51.8661 38.117C51.7014 38.117 51.5541 38.078 51.4241 38C51.2941 37.9307 51.1684 37.8137 51.0471 37.649L49.3311 35.114L48.4471 35.933V37.129C48.4471 37.4757 48.3127 37.727 48.0441 37.883C47.7841 38.039 47.3854 38.117 46.8481 38.117V30.031C46.8481 29.199 47.3897 28.783 48.4731 28.783V34.152L51.4501 31.383C51.8834 31.721 52.1001 31.9983 52.1001 32.215C52.1001 32.3537 52.0611 32.475 51.9831 32.579C51.9137 32.683 51.8011 32.8043 51.6451 32.943L50.2801 34.217L52.7111 37.649ZM56.1821 38.117C55.6447 38.117 55.1551 38.013 54.7131 37.805C54.2711 37.5883 53.9201 37.298 53.6601 36.934C53.4001 36.5613 53.2701 36.1453 53.2701 35.686V33.957C53.2701 33.4717 53.4044 33.034 53.6731 32.644C53.9417 32.254 54.2971 31.9463 54.7391 31.721C55.1897 31.4957 55.6751 31.383 56.1951 31.383C56.7064 31.383 57.1744 31.4913 57.5991 31.708C58.0324 31.916 58.3747 32.2107 58.6261 32.592C58.8774 32.9647 59.0031 33.3937 59.0031 33.879V34.607C59.0031 34.7977 58.9294 34.958 58.7821 35.088C58.6434 35.218 58.4657 35.283 58.2491 35.283H54.8431V35.569C54.8431 35.9417 54.9557 36.245 55.1811 36.479C55.4064 36.713 55.7444 36.83 56.1951 36.83C56.6284 36.83 56.9491 36.7347 57.1571 36.544C57.3737 36.3533 57.4821 36.1063 57.4821 35.803C57.6381 35.7857 57.7464 35.777 57.8071 35.777C58.1277 35.777 58.3791 35.8507 58.5611 35.998C58.7431 36.1367 58.8341 36.336 58.8341 36.596C58.8341 36.8473 58.7171 37.09 58.4831 37.324C58.2491 37.558 57.9284 37.7487 57.5211 37.896C57.1137 38.0433 56.6674 38.117 56.1821 38.117ZM57.5341 34.126V33.879C57.5341 33.515 57.4084 33.2203 57.1571 32.995C56.9057 32.7697 56.5807 32.657 56.1821 32.657C55.7834 32.657 55.4584 32.7697 55.2071 32.995C54.9644 33.2117 54.8431 33.5063 54.8431 33.879V34.126H57.5341ZM65.7639 38.117C65.3219 38.117 64.9145 38.0303 64.5419 37.857C64.1779 37.6837 63.8832 37.4367 63.6579 37.116C63.4412 36.7867 63.3329 36.3967 63.3329 35.946C63.3329 35.4953 63.4499 35.1053 63.6839 34.776C63.9179 34.438 64.2342 34.1823 64.6329 34.009C65.0402 33.827 65.4865 33.736 65.9719 33.736C66.3705 33.736 66.7259 33.801 67.0379 33.931C67.3585 34.0523 67.6532 34.2387 67.9219 34.49L67.9869 34.425C67.9089 34.347 67.7745 34.23 67.5839 34.074V33.814C67.5839 33.4587 67.4582 33.177 67.2069 32.969C66.9555 32.761 66.6045 32.657 66.1539 32.657C65.3479 32.657 64.7542 32.9517 64.3729 33.541C64.1822 33.4803 64.0219 33.385 63.8919 33.255C63.7619 33.1163 63.6969 32.969 63.6969 32.813C63.6969 32.553 63.8139 32.3147 64.0479 32.098C64.2819 31.8813 64.5982 31.708 64.9969 31.578C65.3955 31.448 65.8289 31.383 66.2969 31.383C67.2155 31.383 67.9262 31.5997 68.4289 32.033C68.9315 32.4577 69.1829 33.0383 69.1829 33.775V37.025C69.1829 37.4063 69.0615 37.6837 68.8189 37.857C68.5762 38.0303 68.1949 38.117 67.6749 38.117V37.584C67.8222 37.4367 67.9219 37.3283 67.9739 37.259L67.9219 37.194C67.6359 37.4973 67.3282 37.727 66.9989 37.883C66.6782 38.039 66.2665 38.117 65.7639 38.117ZM66.1799 36.934C66.6305 36.934 66.9815 36.8473 67.2329 36.674C67.4842 36.5007 67.6099 36.2537 67.6099 35.933C67.6099 35.621 67.4799 35.374 67.2199 35.192C66.9685 35.01 66.6262 34.919 66.1929 34.919C65.7942 34.919 65.4779 35.01 65.2439 35.192C65.0185 35.3653 64.9059 35.6123 64.9059 35.933C64.9059 36.2623 65.0185 36.5137 65.2439 36.687C65.4692 36.8517 65.7812 36.934 66.1799 36.934ZM70.6391 32.501C70.6391 32.1803 70.7647 31.916 71.0161 31.708C71.2674 31.4913 71.6401 31.383 72.1341 31.383V32.085C71.9867 32.2843 71.9044 32.4013 71.8871 32.436L71.9391 32.488C72.2164 32.124 72.5197 31.851 72.8491 31.669C73.1871 31.4783 73.6031 31.383 74.0971 31.383C74.5737 31.383 74.9941 31.4827 75.3581 31.682C75.7307 31.8727 76.0211 32.1457 76.2291 32.501C76.4371 32.8563 76.5411 33.2637 76.5411 33.723V35.777C76.5411 36.245 76.4241 36.6567 76.1901 37.012C75.9647 37.3673 75.6527 37.6403 75.2541 37.831C74.8554 38.0217 74.4047 38.117 73.9021 38.117C73.5814 38.117 73.2477 38.052 72.9011 37.922C72.5631 37.7833 72.2771 37.597 72.0431 37.363L71.9911 37.428C72.0517 37.5147 72.1471 37.6057 72.2771 37.701V39.625C72.2771 40.353 71.7311 40.717 70.6391 40.717V32.501ZM73.5901 36.713C74.0147 36.713 74.3441 36.622 74.5781 36.44C74.8121 36.258 74.9291 36.0023 74.9291 35.673V33.827C74.9291 33.489 74.8121 33.2333 74.5781 33.06C74.3527 32.878 74.0234 32.787 73.5901 32.787C73.2001 32.787 72.8794 32.8823 72.6281 33.073C72.3767 33.255 72.2511 33.4847 72.2511 33.762V35.738C72.2511 36.0067 72.3724 36.2363 72.6151 36.427C72.8664 36.6177 73.1914 36.713 73.5901 36.713ZM77.8373 32.501C77.8373 32.1803 77.963 31.916 78.2143 31.708C78.4656 31.4913 78.8383 31.383 79.3323 31.383V32.085C79.185 32.2843 79.1026 32.4013 79.0853 32.436L79.1373 32.488C79.4146 32.124 79.718 31.851 80.0473 31.669C80.3853 31.4783 80.8013 31.383 81.2953 31.383C81.772 31.383 82.1923 31.4827 82.5563 31.682C82.929 31.8727 83.2193 32.1457 83.4273 32.501C83.6353 32.8563 83.7393 33.2637 83.7393 33.723V35.777C83.7393 36.245 83.6223 36.6567 83.3883 37.012C83.163 37.3673 82.851 37.6403 82.4523 37.831C82.0536 38.0217 81.603 38.117 81.1003 38.117C80.7796 38.117 80.446 38.052 80.0993 37.922C79.7613 37.7833 79.4753 37.597 79.2413 37.363L79.1893 37.428C79.25 37.5147 79.3453 37.6057 79.4753 37.701V39.625C79.4753 40.353 78.9293 40.717 77.8373 40.717V32.501ZM80.7883 36.713C81.213 36.713 81.5423 36.622 81.7763 36.44C82.0103 36.258 82.1273 36.0023 82.1273 35.673V33.827C82.1273 33.489 82.0103 33.2333 81.7763 33.06C81.551 32.878 81.2216 32.787 80.7883 32.787C80.3983 32.787 80.0776 32.8823 79.8263 33.073C79.575 33.255 79.4493 33.4847 79.4493 33.762V35.738C79.4493 36.0067 79.5706 36.2363 79.8133 36.427C80.0646 36.6177 80.3896 36.713 80.7883 36.713Z" fill="black"/>
</svg>
