<svg width="82" height="53" viewBox="0 0 82 53" fill="none" xmlns="http://www.w3.org/2000/svg">
<path d="M74.3473 50.9477L78.8418 49.4334C79.4406 49.2316 79.7083 48.5385 79.3905 47.9924C71.3162 34.1146 54.8863 7.43128 52.9518 6.287C49.0062 3.95326 47.0295 11.5086 44.9885 14.553C42.9474 17.5975 44.9522 22.0011 47.3663 24.6636C48.8944 26.3489 54.3915 26.5835 56.4325 28.6132C59.931 32.0921 61.5188 38.7609 56.9498 38.7609H31.8517C24.708 38.7609 14.2284 38.9104 13.2078 37.896C12.1873 36.8817 13.7163 36.1872 15.4029 33.8578C16.72 32.0388 20.3784 32.6936 24.9663 33.2565C29.0484 33.933 37.78 35.3414 39.4129 34.5295C41.4539 33.5147 40.5709 33.1623 33.4273 28.0881C26.2837 23.014 27.8112 22.7977 28.4593 18.4649C28.9308 15.3127 26.1092 14.0163 23.5049 13.4238C23.4066 13.4014 23.3141 13.3668 23.2269 13.3162C20.796 11.9075 15.8801 8.32728 14.2764 5.13772C12.9 2.40033 10.5875 1.90127 9.28387 2.01464C8.90368 2.0477 8.64007 2.37095 8.58846 2.74906L3.7065 38.5131C3.68429 38.6758 3.7025 38.8415 3.75953 38.9956L5.95732 44.9316C6.08926 45.288 6.00782 45.6883 5.74715 45.9648L1.79477 50.157C1.49404 50.476 1.72019 51 2.15858 51H74.028C74.1366 51 74.2444 50.9823 74.3473 50.9477Z" stroke="#010000" stroke-width="3"/>
</svg>
