<svg width="40" height="13" viewBox="0 0 40 13" fill="none" xmlns="http://www.w3.org/2000/svg">
<path d="M7.19184 11.9329C8.99528 11.9329 19.791 11.9355 29.9963 11.997C31.1256 12.0038 34.6744 11.997 35.9179 11.997C38.7527 11.997 38.9417 9.84674 38.9417 9.17095C38.9417 8.49517 39.1811 4.87048 38.6897 4.07183C37.9338 2.84312 36.9888 2.84312 35.5399 2.35164C33.2433 1.57259 32.2499 1.32546 31.5712 3.02743C30.8925 4.7294 34.5802 4.99286 35.162 6.22206C35.7437 7.45126 35.5853 9.01614 34.343 8.80235C33.2721 8.61804 27.1026 4.83216 24.3267 3.02743C21.3029 1.0615 19.917 1.36868 18.905 2.66665C18.1983 3.57297 16.5782 5.91489 15.8853 7.02072C15.3546 7.86762 16.5152 9.72388 14.3734 9.72388C13.2302 9.72388 11.6743 9.84675 10.6566 9.53957C9.19668 9.0989 7.50683 7.81938 6.4359 7.14359C4.73502 6.07028 5.36498 4.93192 6.30991 4.93192H11.0346C12.6725 4.93192 14.1214 4.01039 14.1214 2.65877C14.1214 1.73729 13.6174 1.00007 12.2945 1.00002H6.30993C2.27819 1.00002 0.815698 3.80313 1.01829 5.42338C1.33324 7.94223 4.23975 7.81314 5.49096 8.86376C6.56189 9.76299 5.38841 11.9329 7.19184 11.9329Z" stroke="black"/>
</svg>
