<svg width="37" height="31" viewBox="0 0 37 31" fill="none" xmlns="http://www.w3.org/2000/svg">
<path d="M10.5211 1.55137C10.1358 2.32139 4.64206 15.7827 1.51003 23.4813C1.17482 24.3053 0.95138 25.1865 1.06105 26.0693C1.74389 31.5654 7.95503 30.6974 9.57686 29.9541C11.308 29.1606 10.3175 25.8604 10.0901 25.1028L10.0854 25.0871C9.86743 24.3606 8.34194 19.0578 9.6495 18.404C10.9571 17.7502 11.2476 20.7285 12.2646 19.7842C13.2816 18.8398 18.4392 17.0964 20.4005 16.5153C22.3618 15.9342 28.3911 16.1521 29.4081 16.37C30.4251 16.5879 31.0062 17.7502 30.643 18.6219C30.2798 19.4936 27.3741 20.0748 26.5024 20.0748C25.6307 20.0748 24.3232 21.0191 23.8873 22.3267C23.4515 23.6342 29.1902 25.2323 30.4977 25.0144C31.8053 24.7965 31.8779 23.5616 32.6044 22.1814C33.3308 20.8012 35.5827 18.6946 36.0185 16.5153C36.4544 14.336 33.7666 12.9558 32.7496 12.52C31.7327 12.0841 27.0836 12.1568 26.2119 12.3747C25.3402 12.5926 22.7251 14.4087 20.8364 14.8445C18.9477 15.2804 16.042 14.4087 13.9354 14.0455C11.8288 13.6823 9.57686 15.571 8.05138 15.6436C6.5259 15.7162 6.59854 14.1181 7.25232 13.537C7.90609 12.9558 10.2306 12.52 10.9571 11.8662C11.6835 11.2124 11.4655 7.5077 11.6108 6.99921C11.7561 6.49071 12.7005 4.82053 13.4995 2.8592C14.2986 0.897867 11.0297 0.534657 10.5211 1.55137Z" stroke="black"/>
</svg>
