<svg width="37" height="27" viewBox="0 0 37 27" fill="none" xmlns="http://www.w3.org/2000/svg">
<path d="M33.8696 26.117H6.30723C4.40292 26.117 3.57618 23.7074 5.07935 22.5383L8.35807 19.9882C8.90393 19.5636 8.86442 18.7264 8.281 18.3552L4.28422 15.8118C4.08649 15.6859 3.93923 15.4947 3.86817 15.2713L1.09472 6.55475C0.755872 5.4898 1.35545 4.35382 2.42587 4.03269L3.68731 3.65426C4.69528 3.35187 5.76493 3.88185 6.13858 4.86564C6.70642 6.3607 7.43462 8.25814 7.97816 9.617C8.97816 12.117 9.47816 10.617 9.97816 6.11701C10.4782 1.61701 11.4782 0.61701 12.9782 1.11701C14.4782 1.61701 13.9782 2.61701 14.4782 4.11701C14.9782 5.61701 16.9781 7.11701 17.4781 8.11701C17.9781 9.11701 15.9781 12.117 16.9781 13.617C17.9781 15.117 20.9781 13.117 23.4781 10.617C25.9781 8.11701 26.4781 2.11701 27.9781 2.11701H30.7796C31.8334 2.11701 32.8099 2.66991 33.3521 3.57352L34.4149 5.34499C35.0551 6.41201 34.9702 7.76349 34.2014 8.74194L30.4121 13.5648C30.1517 13.8961 30.127 14.3552 30.3504 14.7126L35.5656 23.057C36.3982 24.3891 35.4405 26.117 33.8696 26.117Z" stroke="black"/>
</svg>
