<svg width="38" height="23" viewBox="0 0 38 23" fill="none" xmlns="http://www.w3.org/2000/svg">
<path fill-rule="evenodd" clip-rule="evenodd" d="M32.1599 0.792408C32.1599 0.0615817 33.0873 -0.298617 33.56 0.305113C34.7644 1.84364 36.419 4.15589 37.2985 5.39774C37.758 6.04653 38 6.81707 38 7.60978V20.9997C38 21.3399 37.8286 21.648 37.5524 21.8322L37.2681 22.0217V22.3692C37.2681 22.7225 36.9816 23.0089 36.6283 23.0089H13.1C12.8217 23.0089 12.4794 22.9332 12.1188 22.8244C11.7481 22.7125 11.3183 22.5532 10.8508 22.36C9.91513 21.9734 8.80172 21.4406 7.65929 20.8502C5.37726 19.6708 2.94268 18.2424 1.53174 17.252C1.40927 17.1661 1.28283 17.0956 1.15088 17.0414L0.359192 16.7166C0.0910962 16.6066 -0.0543409 16.3153 0.0188565 16.035L0.650173 13.6167C0.806443 13.0181 1.18762 12.4794 1.77539 12.1843C2.41045 11.8653 3.36684 11.4257 4.40087 10.9923C5.30569 10.6131 5.83468 10.1483 6.146 9.63534C6.46017 9.11772 6.58476 8.4985 6.58476 7.75338C6.58476 7.17237 6.58777 6.13967 6.59103 5.02001C6.59457 3.8039 6.59841 2.48521 6.59902 1.53127C6.5993 1.09504 6.99156 0.770539 7.4156 0.841636L9.18755 1.13873C9.30578 0.877738 9.55139 0.676448 9.85779 0.635124C11.3255 0.437167 12.4083 0.963139 13.1179 1.67597C13.8023 2.3634 14.157 3.24321 14.1755 3.81959L14.1757 3.82359L14.2254 6.97033L23.4147 6.80672H23.419C26.2636 6.80672 30.4552 6.76532 31.9218 6.56713C32.1101 6.54169 32.6757 6.36704 33.1153 6.0338C33.3297 5.87138 33.4841 5.69358 33.564 5.50865C33.6381 5.337 33.6618 5.12984 33.5658 4.85953C33.4424 4.51206 33.0971 4.02422 32.731 3.56225C32.3705 3.10716 32.1599 2.54278 32.1599 1.94902V0.792408ZM33.1347 1.34816V1.94902C33.1347 2.31003 33.2627 2.66362 33.4951 2.95689C33.8492 3.40388 34.2989 4.01116 34.4844 4.53331C34.6611 5.03083 34.6327 5.49283 34.4588 5.89526C34.2907 6.28441 34.0011 6.5856 33.7041 6.81068C33.1213 7.25245 32.3952 7.48682 32.0524 7.53315C30.5046 7.7423 26.2335 7.78148 23.4233 7.78152L14.1512 7.9466C13.6627 7.9553 13.2599 7.56582 13.2522 7.0773L13.2011 3.84759C13.1901 3.55539 12.9648 2.90388 12.4271 2.3637C11.9224 1.85668 11.1565 1.46295 10.053 1.59297L10.0064 1.70079C9.87292 2.00945 9.54611 2.18725 9.21446 2.13165L7.57351 1.85652C7.57238 2.77872 7.56898 3.94234 7.56582 5.02382C7.56256 6.13951 7.55956 7.16777 7.55956 7.75338C7.55956 8.60133 7.41864 9.4173 6.97932 10.1411C6.53717 10.8696 5.82472 11.4525 4.77767 11.8913C3.75948 12.3181 2.82395 12.7485 2.21287 13.0554C1.90957 13.2077 1.68896 13.4967 1.59336 13.8629L1.0495 15.9462L1.52087 16.1396C1.72617 16.2238 1.9159 16.3307 2.09178 16.4542C3.4537 17.4101 5.8464 18.816 8.10684 19.9842C9.23566 20.5676 10.3223 21.0869 11.223 21.4591C11.6737 21.6453 12.0713 21.7919 12.4004 21.8912C12.7397 21.9935 12.9698 22.0341 13.1 22.0341H36.2933V22.0054C36.2933 21.6897 36.4511 21.3948 36.7138 21.2197L37.0116 21.0211C37.0184 21.0166 37.0215 21.0123 37.0229 21.0097C37.0242 21.0072 37.0252 21.0043 37.0252 20.9997V7.60978C37.0252 7.01658 36.8445 6.44333 36.503 5.96113C35.7045 4.83368 34.2794 2.84141 33.1347 1.34816Z" fill="black"/>
</svg>
